Coordinates
version=1
nRows=29
nColumns=24
inDegrees=yes

Units are S.I. units (second, meters, Newtons, ...)
Angles are in degrees.

endheader
time	pelvis_tilt	pelvis_list	pelvis_rotation	pelvis_tx	pelvis_ty	pelvis_tz	hip_flexion_r	hip_adduction_r	hip_rotation_r	knee_angle_r	ankle_angle_r	subtalar_angle_r	mtp_angle_r	hip_flexion_l	hip_adduction_l	hip_rotation_l	knee_angle_l	ankle_angle_l	subtalar_angle_l	mtp_angle_l	lumbar_extension	lumbar_bending	lumbar_rotation
      4.73000000	    -16.54689055	     -7.41446700	      3.11243161	      2.97884990	     -0.02173701	     -0.41322419	     32.46619623	      7.79867911	     -6.20480208	    -16.14499537	     -8.65749771	      0.62160740	      8.77475895	     12.87821932	    -13.17804683	    -12.75779396	    -47.47001539	    -35.00320100	     27.45796420	     29.31680060	     15.67166503	     10.03945544	     -7.94679257
      4.73500000	    -16.49275481	     -7.56295057	      3.13030775	      2.98458709	     -0.02110312	     -0.41287074	     31.93347649	      8.01028856	     -6.26089332	    -15.90549024	     -8.38428126	      0.72418343	      8.93914438	     13.73370760	    -13.47720232	    -12.50350523	    -48.96880263	    -34.60925248	     26.05564071	     29.23469096	     15.62509698	     10.18998382	     -7.87226560
      4.74000000	    -16.53980248	     -7.62155110	      3.16744727	      2.99025761	     -0.02055847	     -0.41261811	     31.52598142	      8.08771636	     -6.40168105	    -15.70013154	     -8.09391333	      0.99688589	      9.37311925	     14.71435334	    -13.62230717	    -12.19070831	    -50.44052268	    -33.98398512	     24.58781309	     29.03927241	     15.68686023	     10.23829307	     -7.79554610
      4.74500000	    -16.41254603	     -7.71039641	      3.16320390	      2.99600468	     -0.01976669	     -0.41221113	     30.88544168	      8.27249048	     -6.36886915	    -15.41471809	     -7.87930280	      1.03823167	      9.53307098	     15.46340798	    -13.84076358	    -11.98915232	    -51.81344227	    -33.27561204	     23.11299634	     28.94921271	     15.55710545	     10.33377675	     -7.63759358
      4.75000000	    -16.33904934	     -7.73539569	      3.13312362	      3.00170756	     -0.01904530	     -0.41180802	     30.32217819	      8.38328641	     -6.37594240	    -15.17555633	     -7.62902719	      1.23964579	      9.86019674	     16.26361180	    -13.97976870	    -11.83369068	    -53.16063854	    -32.37191805	     21.65718294	     28.65379512	     15.47738070	     10.36626917	     -7.48694982
      4.75500000	    -16.19719299	     -7.76129363	      3.10707694	      3.00748462	     -0.01818944	     -0.41134593	     29.64897123	      8.52211843	     -6.30311454	    -14.87709246	     -7.41955167	      1.28750862	      9.98732911	     16.96492549	    -14.12308667	    -11.69720965	    -54.39727554	    -31.48082457	     20.20934494	     28.48307804	     15.33668790	     10.39646680	     -7.26545798
      4.76000000	    -16.06866291	     -7.72573679	      3.05383663	      3.01323103	     -0.01736294	     -0.41083499	     29.00060941	      8.60761730	     -6.20449569	    -14.61378457	     -7.15658286	      1.40182761	     10.16403612	     17.66146449	    -14.20517503	    -11.62332967	    -55.58531222	    -30.49199321	     18.82649744	     28.11321013	     15.20277608	     10.36352237	     -7.04818929
      4.76500000	    -15.93046357	     -7.68044594	      2.98368501	      3.01897650	     -0.01649304	     -0.41030110	     28.32862693	      8.69402951	     -6.07451970	    -14.32516477	     -6.94590492	      1.49293750	     10.29616110	     18.32917513	    -14.27848430	    -11.57361470	    -56.69515924	    -29.49749004	     17.53238461	     27.72196922	     15.05764639	     10.32598093	     -6.77756096
      4.77000000	    -15.79805883	     -7.61676102	      2.86892080	      3.02472541	     -0.01563524	     -0.40972580	     27.65758061	      8.77794741	     -5.90893272	    -14.03126469	     -6.75055494	      1.62062671	     10.46593789	     18.97676353	    -14.34586735	    -11.57537028	    -57.75574734	    -28.41200114	     16.44906211	     27.10786300	     14.91569402	     10.28273925	     -6.45615278
      4.77500000	    -15.64318936	     -7.53495539	      2.78252984	      3.03040180	     -0.01473601	     -0.40913873	     26.96141551	      8.84259820	     -5.71257453	    -13.73046384	     -6.57683660	      1.62640506	     10.50814440	     19.59577604	    -14.38239398	    -11.56586219	    -58.69759267	    -27.53062845	     15.30091701	     26.86786739	     14.74489302	     10.20557263	     -6.15089992
      4.78000000	    -15.49200444	     -7.41533333	      2.64001680	      3.03615656	     -0.01386432	     -0.40848922	     26.25394102	      8.89245591	     -5.42697319	    -13.42561318	     -6.36168643	      1.67072456	     10.56673219	     20.17234743	    -14.39711224	    -11.62984478	    -59.58214996	    -26.56053845	     14.38770432	     26.36591571	     14.58646479	     10.10312750	     -5.80509831
      4.78500000	    -15.34089338	     -7.28713772	      2.51380674	      3.04182988	     -0.01300196	     -0.40783269	     25.55787762	      8.92732153	     -5.17682224	    -13.13008089	     -6.17305004	      1.64485042	     10.57584630	     20.74737649	    -14.39210871	    -11.67888369	    -60.37339160	    -25.71915840	     13.50948072	     26.13578603	     14.42209397	      9.98063947	     -5.45660944
      4.79000000	    -15.20433779	     -7.18351303	      2.36248251	      3.04756712	     -0.01217703	     -0.40716635	     24.86476660	      8.99028332	     -4.93421710	    -12.81433208	     -5.99967061	      1.65963068	     10.58000841	     21.31645361	    -14.41803108	    -11.73844696	    -61.08365838	    -24.94428615	     12.76500300	     26.07068107	     14.28950537	      9.89333263	     -5.08249054
      4.79500000	    -15.04424505	     -6.98465047	      2.19757653	      3.05314604	     -0.01129691	     -0.40650220	     24.15758545	      8.96342771	     -4.56993524	    -12.51867564	     -5.83449130	      1.59317120	     10.55217590	     21.83583992	    -14.32109270	    -11.81691660	    -61.71215737	    -24.17443780	     12.14296284	     25.90601139	     14.09826309	      9.70964275	     -4.67769826
      4.80000000	    -14.88599280	     -6.80282800	      2.02074391	      3.05883620	     -0.01046105	     -0.40580422	     23.43488334	      8.95688981	     -4.19684577	    -12.20266153	     -5.65225086	      1.52393651	     10.50662952	     22.33056198	    -14.25100229	    -11.90772442	    -62.26023661	    -23.42245162	     11.70985503	     25.87249311	     13.93696029	      9.54350595	     -4.29545531
      4.80500000	    -14.75534996	     -6.62770000	      1.84203863	      3.06446514	     -0.00968603	     -0.40512850	     22.75619141	      8.94294066	     -3.89019793	    -11.90110247	     -5.47304100	      1.51374533	     10.49649083	     22.85643382	    -14.17541448	    -11.98797685	    -62.73933140	    -22.75259705	     11.31508762	     26.01522038	     13.80313355	      9.38462519	     -3.90372000
      4.81000000	    -14.61305165	     -6.39585297	      1.65634956	      3.07006310	     -0.00888820	     -0.40444335	     22.06161255	      8.87136382	     -3.51481424	    -11.59742567	     -5.29302927	      1.46151451	     10.48223454	     23.33820172	    -14.02433136	    -12.07227532	    -63.11963686	    -22.10146282	     11.08429466	     26.23013328	     13.65230506	      9.16519028	     -3.50453021
      4.81500000	    -14.43971173	     -6.19167231	      1.47072955	      3.07561337	     -0.00808175	     -0.40374717	     21.33282620	      8.82801250	     -3.14762335	    -11.27839135	     -5.15820955	      1.35395747	     10.43857278	     23.78302656	    -13.89942343	    -12.14621867	    -63.43468972	    -21.47204551	     10.93818468	     26.53891327	     13.46311515	      8.97514018	     -3.09292078
      4.82000000	    -14.29972908	     -5.95943386	      1.27527410	      3.08116914	     -0.00732927	     -0.40306099	     20.64241600	      8.74416617	     -2.79605304	    -10.96668368	     -4.99841443	      1.31845060	     10.42913094	     24.24180061	    -13.73555789	    -12.23445285	    -63.67110335	    -20.85955153	     10.88800177	     26.90305861	     13.31912109	      8.75593326	     -2.69418973
      4.82500000	    -14.15712173	     -5.71659778	      1.08164366	      3.08671556	     -0.00658798	     -0.40237118	     19.94612188	      8.64296673	     -2.44792770	    -10.64531763	     -4.84898024	      1.27177186	     10.42589494	     24.68197090	    -13.55115186	    -12.32335279	    -63.83155046	    -20.26298432	     10.91150947	     27.30877295	     13.17617329	      8.52185968	     -2.30793555
      4.83000000	    -14.03481169	     -5.46031246	      0.88953326	      3.09219085	     -0.00589512	     -0.40168604	     19.28658842	      8.51677854	     -2.13578708	    -10.34155763	     -4.69009311	      1.25820134	     10.43806604	     25.14129518	    -13.33924404	    -12.40116118	    -63.93380288	    -19.67438658	     11.01978801	     27.70905513	     13.04888766	      8.27144205	     -1.90489417
      4.83500000	    -13.87836032	     -5.21360653	      0.68064642	      3.09767451	     -0.00518867	     -0.40098087	     18.57307915	      8.40228918	     -1.75810495	    -10.00426796	     -4.55111564	      1.21499228	     10.44340002	     25.53983483	    -13.14785999	    -12.51235973	    -63.96223772	    -19.10765885	     11.15438298	     28.15082810	     12.88932445	      8.03435149	     -1.52414481
      4.84000000	    -13.73748047	     -4.95479313	      0.47727667	      3.10313636	     -0.00452180	     -0.40028061	     17.88267849	      8.26497088	     -1.41248668	     -9.67385978	     -4.41045648	      1.18108077	     10.44584452	     25.94607091	    -12.93273887	    -12.62139546	    -63.92957499	    -18.54866392	     11.33181002	     28.57077293	     12.74961644	      7.77950893	     -1.14003060
      4.84500000	    -13.60492088	     -4.69226262	      0.27015452	      3.10854528	     -0.00388876	     -0.39956987	     17.20968470	      8.11792135	     -1.08940583	     -9.34889516	     -4.27483137	      1.15061044	     10.44210373	     26.35225055	    -12.70868781	    -12.73441335	    -63.83852390	    -17.99008228	     11.53207638	     28.95365173	     12.61468213	      7.51838045	     -0.74936040
      4.85000000	    -13.52388450	     -4.42261291	      0.09851209	      3.11397060	     -0.00335378	     -0.39893702	     16.58956298	      7.93804284	     -0.79414997	     -9.01736151	     -4.10524893	      1.16116491	     10.44833809	     26.82152627	    -12.44995333	    -12.81905074	    -63.70449410	    -17.45274206	     11.71821121	     29.25051182	     12.55545633	      7.23868725	     -0.44812138
      4.85500000	    -13.31662929	     -4.18157341	     -0.16902159	      3.11931577	     -0.00269773	     -0.39815151	     15.82608165	      7.82253476	     -0.37618440	     -8.66334737	     -4.02491628	      1.07352669	     10.39969057	     27.10027292	    -12.28026589	    -13.00950705	    -63.49202547	    -16.89325923	     11.93246896	     29.59250182	     12.32945585	      7.01612913	      0.00670207
      4.86000000	    -13.17672858	     -3.92250284	     -0.38771608	      3.12466499	     -0.00215710	     -0.39742744	     15.14336846	      7.66252756	     -0.02182450	     -8.32138475	     -3.90027378	      1.00195782	     10.33419941	     27.46069347	    -12.05625219	    -13.15850943	    -63.23525817	    -16.34478232	     12.10157724	     29.82634038	     12.19244124	      6.75238554	      0.36124131
      4.86500000	    -13.12207834	     -3.66953600	     -0.57244937	      3.12997019	     -0.00176187	     -0.39679181	     14.56835910	      7.48261650	      0.24800057	     -7.99613928	     -3.74162560	      1.02716187	     10.31625937	     27.93363582	    -11.80636410	    -13.25253402	    -62.94985126	    -15.82898218	     12.23836756	     29.98680415	     12.15283906	      6.48981539	      0.67350270
      4.87000000	    -12.92717844	     -3.43877560	     -0.86167027	      3.13523075	     -0.00124690	     -0.39598770	     13.83221139	      7.35824913	      0.66120286	     -7.65297837	     -3.64521935	      0.95726189	     10.20937952	     28.19494834	    -11.64788708	    -13.47836476	    -62.60173436	    -15.26464225	     12.36500703	     30.06219091	     11.94024355	      6.27263065	      1.12952865
